<svg width="40" height="40" viewBox="0 0 40 40" fill="none" xmlns="http://www.w3.org/2000/svg">
<path d="M15.7649 22.7672L16.8768 23.8791L22.2315 18.5245L22.2315 23.103L23.7315 23.103L23.7315 15.9321L16.54 15.9114L16.541 17.4125H21.1196L15.7649 22.7672ZM10.1922 29.4366C8.83605 28.0805 7.81788 26.5478 7.13764 24.8385C6.45886 23.1291 6.1191 21.3911 6.11837 19.6244C6.11765 17.8577 6.45595 16.1204 7.13328 14.4125C7.81061 12.7047 8.82806 11.1719 10.1856 9.81438C11.5432 8.45681 13.0763 7.439 14.7849 6.76094C16.4934 6.08143 18.2304 5.74059 19.9956 5.73841C21.7609 5.73623 23.4986 6.07489 25.2086 6.7544C26.9186 7.43391 28.4517 8.45172 29.8078 9.80784C31.1639 11.1639 32.1818 12.697 32.8613 14.4071C33.5408 16.1156 33.8813 17.8529 33.8827 19.6189C33.8842 21.3849 33.5455 23.1226 32.8667 24.8319C32.1879 26.5412 31.1705 28.0739 29.8144 29.43C28.4583 30.7862 26.9256 31.8043 25.2162 32.4846C23.5069 33.1648 21.7689 33.5046 20.0022 33.5038C18.2355 33.5031 16.4982 33.1648 14.7903 32.4889C13.0824 31.8131 11.5497 30.7956 10.1922 29.4366Z" fill="black"/>
</svg>
