<svg width="1440" height="257" viewBox="0 0 1440 257" fill="none" xmlns="http://www.w3.org/2000/svg">
<rect x="-67.5" y="0.5" width="1576" height="256" fill="#B4DE00"/>
<rect x="-67.5" y="0.5" width="1576" height="256" stroke="black"/>
<path d="M258.99 183.971C256.665 181.768 254.921 179.289 253.758 176.535C252.595 173.72 252.014 171.303 252.014 169.283C252.014 167.202 252.564 164.755 253.666 161.939C254.768 159.124 256.267 155.881 258.164 152.209C260.061 148.476 262.264 144.437 264.773 140.092C267.283 135.686 269.975 131.249 272.852 126.781L281.48 113.471C284.479 109.126 287.417 105.087 290.293 101.354C278.053 105.27 268.965 109.095 263.029 112.828C257.154 116.5 252.626 119.193 249.443 120.906C246.261 122.62 243.63 123.477 241.549 123.477C238.122 123.477 236.408 121.335 236.408 117.051C236.408 110.931 239.59 103.404 245.955 94.4688C252.564 85.2279 259.388 79.5059 266.426 77.3027C273.525 75.0996 281.419 73.0189 290.109 71.0605C298.861 69.041 307.949 67.2969 317.373 65.8281C337.813 62.6458 356.815 61.0547 374.379 61.0547C394.452 61.0547 407.273 62.9518 412.842 66.7461C417.799 70.112 421.165 74.763 422.939 80.6992C423.796 83.5755 424.225 86.666 424.225 89.9707C424.225 93.2754 422.603 96.7331 419.359 100.344C416.177 103.893 411.924 107.259 406.6 110.441C396.563 116.561 383.406 122.069 367.127 126.965C376.368 128.74 382.763 130.79 386.312 133.115C389.923 135.38 392.463 137.674 393.932 140C395.4 142.264 396.135 145.171 396.135 148.721C396.135 152.209 394.605 155.82 391.545 159.553C388.485 163.286 384.232 166.774 378.785 170.018C373.4 173.261 367.005 176.199 359.6 178.83C352.256 181.462 344.27 183.695 335.641 185.531C317.648 189.448 298.922 191.406 279.461 191.406C271.016 191.406 264.192 188.928 258.99 183.971ZM310.121 115.031C300.941 130.943 296.352 141.958 296.352 148.078C296.352 150.893 297.82 153.525 300.758 155.973C303.512 158.298 306.388 159.461 309.387 159.461C312.385 159.461 315.69 159.339 319.301 159.094C322.911 158.788 326.614 158.39 330.408 157.9C334.202 157.411 337.936 156.829 341.607 156.156C345.279 155.483 348.553 154.718 351.43 153.861C357.794 151.964 360.977 150.036 360.977 148.078C360.977 144.529 356.05 141.591 346.197 139.266C338.18 137.43 330.531 136.512 323.248 136.512C320.433 136.512 318.413 135.961 317.189 134.859C315.965 133.697 315.354 132.381 315.354 130.912C315.354 129.382 316.088 127.822 317.557 126.23C319.087 124.578 321.137 123.232 323.707 122.191C344.514 116.99 361.895 111.145 375.848 104.658C382.702 101.476 386.129 99.0586 386.129 97.4062C386.129 95.0195 385.425 93.0918 384.018 91.623C381.508 88.9915 378.724 87.6758 375.664 87.6758C372.604 87.6758 369.116 87.7982 365.199 88.043C361.283 88.2878 357.06 88.6549 352.531 89.1445C342.556 90.1237 332.673 91.5312 322.881 93.3672C321.473 96.2435 319.607 99.487 317.281 103.098L310.121 115.031ZM536.033 140.826C536.033 147.007 538.757 150.098 544.203 150.098C549.65 150.098 559.074 144.865 572.477 134.4L580.555 127.791C585.879 123.385 590.958 121.182 595.793 121.182C597.568 121.182 598.73 121.671 599.281 122.65C599.832 123.568 600.107 124.762 600.107 126.23C600.107 127.638 599.832 129.137 599.281 130.729C598.792 132.258 598.088 133.88 597.17 135.594C595.15 139.449 593.192 142.448 591.295 144.59C589.398 146.732 587.164 148.965 584.594 151.291C582.085 153.555 579.086 156.126 575.598 159.002C572.109 161.817 568.254 164.724 564.031 167.723C559.809 170.66 555.555 173.353 551.271 175.801C541.602 181.431 533.646 184.246 527.404 184.246C519.938 184.246 514.094 181.615 509.871 176.352C505.893 171.456 503.66 164.908 503.17 156.707C492.154 168.029 480.496 176.749 468.195 182.869C460.668 186.602 454.303 188.469 449.102 188.469C443.9 188.469 439.34 187.857 435.424 186.633C431.507 185.348 428.08 183.451 425.143 180.941C418.778 175.617 415.596 168.212 415.596 158.727C415.596 145.141 420.461 132.044 430.191 119.438C433.251 115.521 436.678 112.094 440.473 109.156C448.673 104.016 457.363 101.445 466.543 101.445C470.582 101.445 473.458 102.7 475.172 105.209C475.845 106.188 476.182 107.473 476.182 109.064C476.182 110.594 475.723 112.4 474.805 114.48C473.948 116.5 472.877 118.642 471.592 120.906C470.307 123.109 468.868 125.404 467.277 127.791C465.747 130.178 464.34 132.503 463.055 134.768C459.995 140.153 458.465 144.039 458.465 146.426C458.465 148.751 459.138 150.465 460.484 151.566C461.831 152.668 463.483 153.219 465.441 153.219C469.786 153.219 473.489 152.178 476.549 150.098C479.609 147.956 482.638 145.508 485.637 142.754L494.266 134.309L502.619 125.68C508.555 119.621 513.053 115.857 516.113 114.389C519.234 112.859 521.499 112.277 522.906 112.645C524.314 113.012 525.752 113.685 527.221 114.664C528.689 115.582 530.128 116.714 531.535 118.061C534.84 121.243 536.676 124.119 537.043 126.689C537.165 128.342 537.012 130.82 536.584 134.125C536.217 137.368 536.033 139.602 536.033 140.826ZM736.701 119.162C739.455 119.162 740.832 120.57 740.832 123.385C740.832 127.852 737.895 134.156 732.02 142.295C727.919 147.986 719.474 155.881 706.684 165.979C691.445 177.912 679.206 183.879 669.965 183.879C662.988 183.879 657.725 180.941 654.176 175.066C652.034 171.517 650.29 166.315 648.943 159.461L640.773 165.336C618.314 180.88 601.546 188.652 590.469 188.652C581.228 188.652 573.823 185.286 568.254 178.555C563.358 172.496 560.91 165.244 560.91 156.799C560.91 147.497 564.092 140.153 570.457 134.768C583.431 123.874 599.557 114.909 618.834 107.871C626.667 104.995 631.624 103.557 633.705 103.557C635.786 103.557 637.683 103.924 639.396 104.658C641.171 105.331 642.915 106.219 644.629 107.32C648.668 110.074 650.688 112.736 650.688 115.307C650.688 117.387 649.402 119.07 646.832 120.355C646.036 120.784 644.69 121.365 642.793 122.1C640.896 122.834 638.57 123.844 635.816 125.129C628.411 128.617 621.19 132.84 614.152 137.797C609.134 142.081 606.625 145.508 606.625 148.078C606.625 150.587 608.4 151.842 611.949 151.842C614.887 151.842 620.762 149.241 629.574 144.039C629.574 144.039 632.175 142.448 637.377 139.266C642.946 135.777 647.413 132.595 650.779 129.719C650.779 129.719 652.187 125.129 655.002 115.949C660.204 99.5482 665.987 85.9928 672.352 75.2832C683.612 53.6803 694.934 42.8789 706.316 42.8789C710.478 42.8789 713.783 43.6439 716.23 45.1738C720.637 47.9277 722.84 50.9876 722.84 54.3535C722.84 57.6582 722.228 61.1771 721.004 64.9102C719.78 68.6432 718.158 72.3457 716.139 76.0176C714.18 79.6895 711.916 83.3307 709.346 86.9414L693.648 107.688C691.017 111.053 688.691 114.327 686.672 117.51C683.122 125.16 681.348 131.708 681.348 137.154C681.348 144.988 684.193 148.904 689.885 148.904C693.128 148.904 698.973 145.508 707.418 138.715L718.25 129.535C723.329 125.007 728.348 121.824 733.305 119.988C734.712 119.438 735.844 119.162 736.701 119.162ZM773.236 125.863C769.136 128.066 765.219 130.484 761.486 133.115C757.753 135.747 754.449 138.439 751.572 141.193C748.696 143.947 747.258 146.334 747.258 148.354C747.258 150.373 748.88 151.383 752.123 151.383C754.387 151.383 757.692 150.281 762.037 148.078L781.957 137.521C785.629 135.624 788.903 133.391 791.779 130.82L798.297 125.129C802.948 120.906 807.813 118.795 812.893 118.795C815.524 118.795 818.156 120.264 820.787 123.201C823.419 126.139 824.734 129.137 824.734 132.197C824.734 139.235 821.858 149.639 816.105 163.408L830.793 151.383L861.086 127.791C864.329 125.343 867.022 124.119 869.164 124.119C873.815 124.119 876.141 126.353 876.141 130.82C876.141 135.41 873.142 141.316 867.145 148.537C864.329 151.964 860.413 155.667 855.395 159.645L804.539 198.199C801.173 200.892 798.511 203.126 796.553 204.9C788.475 217.936 780.702 227.391 773.236 233.266C762.404 241.833 752.368 246.117 743.127 246.117C738.965 246.117 735.569 244.954 732.938 242.629C730.551 240.609 729.357 238.253 729.357 235.561C729.357 233.051 730.031 230.328 731.377 227.391C732.723 224.514 734.529 221.607 736.793 218.67C739.057 215.732 741.628 212.826 744.504 209.949C747.38 207.073 750.44 204.288 753.684 201.596C762.251 194.803 768.34 190.121 771.951 187.551L780.947 181.033C784.497 173.506 787.557 165.367 790.127 156.615C778.316 167.019 765.74 175.189 752.398 181.125C745.728 184.124 740.189 185.623 735.783 185.623C731.377 185.623 727.338 184.705 723.666 182.869C719.994 181.033 716.842 178.616 714.211 175.617C708.764 169.314 706.041 162.001 706.041 153.678C706.041 144.988 709.315 137.674 715.863 131.738C725.716 122.803 739.669 115.031 757.723 108.422C775.103 101.996 789.821 98.7832 801.877 98.7832C805.855 98.7832 807.844 100.742 807.844 104.658C807.844 107.351 807.324 109.432 806.283 110.9C805.304 112.308 802.887 113.685 799.031 115.031C795.237 116.378 791.014 117.969 786.363 119.805C781.773 121.641 777.398 123.66 773.236 125.863ZM988.041 119.529C990.979 119.529 992.447 121.182 992.447 124.486C992.447 126.689 991.682 129.474 990.152 132.84C988.684 136.145 986.542 139.266 983.727 142.203C980.911 145.079 977.668 148.078 973.996 151.199C970.385 154.32 966.132 157.594 961.236 161.021C956.402 164.449 951.047 167.845 945.172 171.211C939.297 174.577 933.055 177.606 926.445 180.299C911.819 186.296 897.652 189.295 883.943 189.295C873.479 189.295 864.329 186.572 856.496 181.125C848.296 175.434 844.195 168.518 844.195 160.379C844.195 147.589 851.08 135.441 864.85 123.936C876.722 114.021 890.706 106.341 906.801 100.895C916.592 97.5898 924.885 95.9375 931.678 95.9375C937.186 95.9375 941.837 97.2839 945.631 99.9766C949.67 102.914 951.689 106.861 951.689 111.818C951.689 119.59 945.539 128.189 933.238 137.613C931.28 139.143 929.505 140.428 927.914 141.469L924.609 143.672C918.49 147.956 909.188 152.76 896.703 158.084C900.559 160.104 904.139 161.113 907.443 161.113C910.809 161.113 913.808 160.715 916.439 159.92C919.132 159.124 922.161 157.992 925.527 156.523C928.893 155.055 932.473 153.311 936.268 151.291C940.123 149.21 944.009 146.946 947.926 144.498C956.677 139.051 964.266 133.482 970.691 127.791C974.057 124.67 978.341 122.191 983.543 120.355C985.257 119.805 986.756 119.529 988.041 119.529ZM886.789 145.324L891.838 142.754C893.49 141.897 894.959 141.102 896.244 140.367C908.606 133.268 915.644 128.893 917.357 127.24C919.071 125.588 919.928 124.456 919.928 123.844C919.928 123.171 919.744 122.406 919.377 121.549C919.01 120.692 918.52 119.927 917.908 119.254C916.439 117.54 914.879 116.684 913.227 116.684C911.574 116.684 909.738 116.99 907.719 117.602C905.76 118.214 903.771 119.07 901.752 120.172C899.732 121.212 897.774 122.497 895.877 124.027C894.041 125.496 892.419 127.087 891.012 128.801C887.768 132.656 886.146 135.992 886.146 138.807C886.146 141.622 886.361 143.794 886.789 145.324ZM1071.76 124.119C1077.76 124.119 1080.76 126.2 1080.76 130.361C1080.76 134.339 1077.94 139.48 1072.31 145.783L1067.81 150.465C1062.37 156.034 1056 161.511 1048.72 166.896C1041.5 172.282 1035.13 176.535 1029.62 179.656C1016.83 186.755 1005.24 190.305 994.834 190.305C985.042 190.305 977.056 187.367 970.875 181.492C965.551 176.413 962.889 171.058 962.889 165.428C962.889 159.798 963.439 154.198 964.541 148.629C965.643 143.06 967.081 137.613 968.855 132.289C972.405 121.457 976.291 112.247 980.514 104.658C981.615 102.577 982.166 101.231 982.166 100.619H970.324C965.857 100.619 962.399 99.5788 959.951 97.498C957.503 95.4173 956.279 93.0612 956.279 90.4297C956.279 87.7982 956.769 85.8704 957.748 84.6465C958.727 83.4225 959.951 82.5352 961.42 81.9844C963.501 81.1276 966.561 80.6992 970.6 80.6992L993.09 80.791C993.579 80.6074 994.559 79.2917 996.027 76.8438L1001.63 67.2051C1004.01 62.9212 1006.4 59.7695 1008.79 57.75C1011.24 55.7305 1014.08 54.7207 1017.32 54.7207C1020.63 54.7207 1023.38 55.0267 1025.59 55.6387C1027.85 56.2507 1029.75 57.0156 1031.28 57.9336C1034.28 59.8919 1035.78 62.0339 1035.78 64.3594C1035.78 65.3385 1035.44 66.6543 1034.77 68.3066L1029.62 80.791L1073.23 80.6992C1077.02 80.6992 1078.92 82.6576 1078.92 86.5742C1078.92 95.8763 1070.63 100.527 1054.04 100.527L1020.45 100.619C1019.71 100.986 1018.46 102.761 1016.68 105.943L1012.55 113.562C1011.51 115.46 1010.78 116.898 1010.35 117.877L1008.33 122.375C1004.23 131.616 1002.18 138.286 1002.18 142.387C1002.18 146.487 1003.25 149.914 1005.39 152.668C1007.59 155.422 1010.5 156.799 1014.11 156.799C1017.72 156.799 1021.24 156.095 1024.67 154.688C1028.16 153.28 1031.55 151.566 1034.86 149.547C1040.85 145.814 1045.57 142.356 1048.99 139.174C1052.42 135.992 1055.27 133.574 1057.53 131.922C1057.53 131.922 1059.67 130.423 1063.96 127.424C1067.26 125.221 1069.86 124.119 1071.76 124.119ZM1223.41 118.061C1225.37 118.061 1226.35 119.713 1226.35 123.018C1226.35 128.709 1222.37 136.083 1214.41 145.141L1209.18 150.465C1193.33 166.315 1178.4 176.872 1164.38 182.135C1155.69 185.378 1149.45 185.225 1145.66 181.676C1142.54 178.677 1140.06 173.842 1138.22 167.172L1136.02 159.186L1116.46 171.211L1105.17 177.637C1091.71 184.98 1081.61 188.652 1074.88 188.652C1066.25 188.652 1059.06 185.317 1053.31 178.646C1047.8 172.343 1045.05 165.03 1045.05 156.707C1045.05 148.507 1048.32 141.193 1054.87 134.768C1064.23 125.588 1079.01 117.173 1099.21 109.523C1118.3 102.363 1133.72 98.7832 1145.47 98.7832C1149.45 98.7832 1151.44 100.742 1151.44 104.658C1151.44 107.351 1150.92 109.37 1149.88 110.717C1148.84 112.063 1146.7 113.44 1143.45 114.848L1131.89 119.805C1114.75 126.965 1102.21 134.4 1094.25 142.111C1091.99 144.253 1090.85 146.334 1090.85 148.354C1090.85 150.373 1092.48 151.383 1095.72 151.383C1098.9 151.383 1106.31 147.956 1117.93 141.102L1125.55 136.604C1137.36 129.505 1147.25 125.955 1155.2 125.955C1161.93 125.955 1166.4 128.923 1168.61 134.859C1169.16 136.451 1169.68 138.072 1170.17 139.725C1170.66 141.316 1171.15 142.754 1171.63 144.039C1172.74 147.038 1173.72 148.537 1174.57 148.537C1175.49 148.537 1176.78 148.109 1178.43 147.252C1180.08 146.334 1181.89 145.202 1183.84 143.855C1185.86 142.448 1187.94 140.918 1190.09 139.266L1201.19 130.361C1211.05 122.161 1218.45 118.061 1223.41 118.061Z" fill="#1B1B1B"/>
</svg>
