<svg width="112" height="42" viewBox="0 0 112 42" fill="none" xmlns="http://www.w3.org/2000/svg">
<rect x="0.5" y="0.5" width="111" height="41" rx="7.5" fill="#B4DE00"/>
<rect x="0.5" y="0.5" width="111" height="41" rx="7.5" stroke="black"/>
<path d="M16.4141 25.7422C16.2161 25.5547 16.0677 25.3438 15.9688 25.1094C15.8698 24.8698 15.8203 24.6641 15.8203 24.4922C15.8203 24.3151 15.8672 24.1068 15.9609 23.8672C16.0547 23.6276 16.1823 23.3516 16.3438 23.0391C16.5052 22.7214 16.6927 22.3776 16.9062 22.0078C17.1198 21.6328 17.349 21.2552 17.5938 20.875L18.3281 19.7422C18.5833 19.3724 18.8333 19.0286 19.0781 18.7109C18.0365 19.0443 17.263 19.3698 16.7578 19.6875C16.2578 20 15.8724 20.2292 15.6016 20.375C15.3307 20.5208 15.1068 20.5938 14.9297 20.5938C14.638 20.5938 14.4922 20.4115 14.4922 20.0469C14.4922 19.526 14.763 18.8854 15.3047 18.125C15.8672 17.3385 16.4479 16.8516 17.0469 16.6641C17.651 16.4766 18.3229 16.2995 19.0625 16.1328C19.8073 15.9609 20.5807 15.8125 21.3828 15.6875C23.1224 15.4167 24.7396 15.2812 26.2344 15.2812C27.9427 15.2812 29.0339 15.4427 29.5078 15.7656C29.9297 16.0521 30.2161 16.4479 30.3672 16.9531C30.4401 17.1979 30.4766 17.4609 30.4766 17.7422C30.4766 18.0234 30.3385 18.3177 30.0625 18.625C29.7917 18.9271 29.4297 19.2135 28.9766 19.4844C28.1224 20.0052 27.0026 20.474 25.6172 20.8906C26.4036 21.0417 26.9479 21.2161 27.25 21.4141C27.5573 21.6068 27.7734 21.8021 27.8984 22C28.0234 22.1927 28.0859 22.4401 28.0859 22.7422C28.0859 23.0391 27.9557 23.3464 27.6953 23.6641C27.4349 23.9818 27.0729 24.2786 26.6094 24.5547C26.151 24.8307 25.6068 25.0807 24.9766 25.3047C24.3516 25.5286 23.6719 25.7188 22.9375 25.875C21.4062 26.2083 19.8125 26.375 18.1562 26.375C17.4375 26.375 16.8568 26.1641 16.4141 25.7422ZM20.7656 19.875C19.9844 21.2292 19.5938 22.1667 19.5938 22.6875C19.5938 22.9271 19.7188 23.151 19.9688 23.3594C20.2031 23.5573 20.4479 23.6562 20.7031 23.6562C20.9583 23.6562 21.2396 23.6458 21.5469 23.625C21.8542 23.599 22.1693 23.5651 22.4922 23.5234C22.8151 23.4818 23.1328 23.4323 23.4453 23.375C23.7578 23.3177 24.0365 23.2526 24.2812 23.1797C24.8229 23.0182 25.0938 22.8542 25.0938 22.6875C25.0938 22.3854 24.6745 22.1354 23.8359 21.9375C23.1536 21.7812 22.5026 21.7031 21.8828 21.7031C21.6432 21.7031 21.4714 21.6562 21.3672 21.5625C21.263 21.4635 21.2109 21.3516 21.2109 21.2266C21.2109 21.0964 21.2734 20.9635 21.3984 20.8281C21.5286 20.6875 21.7031 20.5729 21.9219 20.4844C23.6927 20.0417 25.1719 19.5443 26.3594 18.9922C26.9427 18.7214 27.2344 18.5156 27.2344 18.375C27.2344 18.1719 27.1745 18.0078 27.0547 17.8828C26.8411 17.6589 26.6042 17.5469 26.3438 17.5469C26.0833 17.5469 25.7865 17.5573 25.4531 17.5781C25.1198 17.599 24.7604 17.6302 24.375 17.6719C23.526 17.7552 22.6849 17.875 21.8516 18.0312C21.7318 18.276 21.5729 18.5521 21.375 18.8594L20.7656 19.875ZM39.9922 22.0703C39.9922 22.5964 40.224 22.8594 40.6875 22.8594C41.151 22.8594 41.9531 22.4141 43.0938 21.5234L43.7812 20.9609C44.2344 20.5859 44.6667 20.3984 45.0781 20.3984C45.2292 20.3984 45.3281 20.4401 45.375 20.5234C45.4219 20.6016 45.4453 20.7031 45.4453 20.8281C45.4453 20.9479 45.4219 21.0755 45.375 21.2109C45.3333 21.3411 45.2734 21.4792 45.1953 21.625C45.0234 21.9531 44.8568 22.2083 44.6953 22.3906C44.5339 22.5729 44.3438 22.763 44.125 22.9609C43.9115 23.1536 43.6562 23.3724 43.3594 23.6172C43.0625 23.8568 42.7344 24.1042 42.375 24.3594C42.0156 24.6094 41.6536 24.8385 41.2891 25.0469C40.4661 25.526 39.7891 25.7656 39.2578 25.7656C38.6224 25.7656 38.125 25.5417 37.7656 25.0938C37.4271 24.6771 37.237 24.1198 37.1953 23.4219C36.2578 24.3854 35.2656 25.1276 34.2188 25.6484C33.5781 25.9661 33.0365 26.125 32.5938 26.125C32.151 26.125 31.763 26.0729 31.4297 25.9688C31.0964 25.8594 30.8047 25.6979 30.5547 25.4844C30.013 25.0312 29.7422 24.401 29.7422 23.5938C29.7422 22.4375 30.1562 21.3229 30.9844 20.25C31.2448 19.9167 31.5365 19.625 31.8594 19.375C32.5573 18.9375 33.2969 18.7188 34.0781 18.7188C34.4219 18.7188 34.6667 18.8255 34.8125 19.0391C34.8698 19.1224 34.8984 19.2318 34.8984 19.3672C34.8984 19.4974 34.8594 19.651 34.7812 19.8281C34.7083 20 34.6172 20.1823 34.5078 20.375C34.3984 20.5625 34.276 20.7578 34.1406 20.9609C34.0104 21.1641 33.8906 21.362 33.7812 21.5547C33.5208 22.013 33.3906 22.3438 33.3906 22.5469C33.3906 22.7448 33.4479 22.8906 33.5625 22.9844C33.6771 23.0781 33.8177 23.125 33.9844 23.125C34.3542 23.125 34.6693 23.0365 34.9297 22.8594C35.1901 22.6771 35.4479 22.4688 35.7031 22.2344L36.4375 21.5156L37.1484 20.7812C37.6536 20.2656 38.0365 19.9453 38.2969 19.8203C38.5625 19.6901 38.7552 19.6406 38.875 19.6719C38.9948 19.7031 39.1172 19.7604 39.2422 19.8438C39.3672 19.9219 39.4896 20.0182 39.6094 20.1328C39.8906 20.4036 40.0469 20.6484 40.0781 20.8672C40.0885 21.0078 40.0755 21.2188 40.0391 21.5C40.0078 21.776 39.9922 21.9661 39.9922 22.0703ZM57.0703 20.2266C57.3047 20.2266 57.4219 20.3464 57.4219 20.5859C57.4219 20.9661 57.1719 21.5026 56.6719 22.1953C56.3229 22.6797 55.6042 23.3516 54.5156 24.2109C53.2188 25.2266 52.1771 25.7344 51.3906 25.7344C50.7969 25.7344 50.349 25.4844 50.0469 24.9844C49.8646 24.6823 49.7161 24.2396 49.6016 23.6562L48.9062 24.1562C46.9948 25.4792 45.5677 26.1406 44.625 26.1406C43.8385 26.1406 43.2083 25.8542 42.7344 25.2812C42.3177 24.7656 42.1094 24.1484 42.1094 23.4297C42.1094 22.638 42.3802 22.013 42.9219 21.5547C44.026 20.6276 45.3984 19.8646 47.0391 19.2656C47.7057 19.0208 48.1276 18.8984 48.3047 18.8984C48.4818 18.8984 48.6432 18.9297 48.7891 18.9922C48.9401 19.0495 49.0885 19.125 49.2344 19.2188C49.5781 19.4531 49.75 19.6797 49.75 19.8984C49.75 20.0755 49.6406 20.2188 49.4219 20.3281C49.3542 20.3646 49.2396 20.4141 49.0781 20.4766C48.9167 20.5391 48.7188 20.625 48.4844 20.7344C47.8542 21.0312 47.2396 21.3906 46.6406 21.8125C46.2135 22.1771 46 22.4688 46 22.6875C46 22.901 46.151 23.0078 46.4531 23.0078C46.7031 23.0078 47.2031 22.7865 47.9531 22.3438C47.9531 22.3438 48.1745 22.2083 48.6172 21.9375C49.0911 21.6406 49.4714 21.3698 49.7578 21.125C49.7578 21.125 49.8776 20.7344 50.1172 19.9531C50.5599 18.5573 51.0521 17.4036 51.5938 16.4922C52.5521 14.6536 53.5156 13.7344 54.4844 13.7344C54.8385 13.7344 55.1198 13.7995 55.3281 13.9297C55.7031 14.1641 55.8906 14.4245 55.8906 14.7109C55.8906 14.9922 55.8385 15.2917 55.7344 15.6094C55.6302 15.9271 55.4922 16.2422 55.3203 16.5547C55.1536 16.8672 54.9609 17.1771 54.7422 17.4844L53.4062 19.25C53.1823 19.5365 52.9844 19.8151 52.8125 20.0859C52.5104 20.737 52.3594 21.2943 52.3594 21.7578C52.3594 22.4245 52.6016 22.7578 53.0859 22.7578C53.362 22.7578 53.8594 22.4688 54.5781 21.8906L55.5 21.1094C55.9323 20.724 56.3594 20.4531 56.7812 20.2969C56.901 20.25 56.9974 20.2266 57.0703 20.2266ZM60.1797 20.7969C59.8307 20.9844 59.4974 21.1901 59.1797 21.4141C58.862 21.638 58.5807 21.8672 58.3359 22.1016C58.0911 22.3359 57.9688 22.5391 57.9688 22.7109C57.9688 22.8828 58.1068 22.9688 58.3828 22.9688C58.5755 22.9688 58.8568 22.875 59.2266 22.6875L60.9219 21.7891C61.2344 21.6276 61.513 21.4375 61.7578 21.2188L62.3125 20.7344C62.7083 20.375 63.1224 20.1953 63.5547 20.1953C63.7786 20.1953 64.0026 20.3203 64.2266 20.5703C64.4505 20.8203 64.5625 21.0755 64.5625 21.3359C64.5625 21.9349 64.3177 22.8203 63.8281 23.9922L65.0781 22.9688L67.6562 20.9609C67.9323 20.7526 68.1615 20.6484 68.3438 20.6484C68.7396 20.6484 68.9375 20.8385 68.9375 21.2188C68.9375 21.6094 68.6823 22.112 68.1719 22.7266C67.9323 23.0182 67.599 23.3333 67.1719 23.6719L62.8438 26.9531C62.5573 27.1823 62.3307 27.3724 62.1641 27.5234C61.4766 28.6328 60.8151 29.4375 60.1797 29.9375C59.2578 30.6667 58.4036 31.0312 57.6172 31.0312C57.263 31.0312 56.974 30.9323 56.75 30.7344C56.5469 30.5625 56.4453 30.362 56.4453 30.1328C56.4453 29.9193 56.5026 29.6875 56.6172 29.4375C56.7318 29.1927 56.8854 28.9453 57.0781 28.6953C57.2708 28.4453 57.4896 28.1979 57.7344 27.9531C57.9792 27.7083 58.2396 27.4714 58.5156 27.2422C59.2448 26.6641 59.763 26.2656 60.0703 26.0469L60.8359 25.4922C61.138 24.8516 61.3984 24.1589 61.6172 23.4141C60.612 24.2995 59.5417 24.9948 58.4062 25.5C57.8385 25.7552 57.3672 25.8828 56.9922 25.8828C56.6172 25.8828 56.2734 25.8047 55.9609 25.6484C55.6484 25.4922 55.3802 25.2865 55.1562 25.0312C54.6927 24.4948 54.4609 23.8724 54.4609 23.1641C54.4609 22.4245 54.7396 21.8021 55.2969 21.2969C56.1354 20.5365 57.3229 19.875 58.8594 19.3125C60.3385 18.7656 61.5911 18.4922 62.6172 18.4922C62.9557 18.4922 63.125 18.6589 63.125 18.9922C63.125 19.2214 63.0807 19.3984 62.9922 19.5234C62.9089 19.6432 62.7031 19.7604 62.375 19.875C62.0521 19.9896 61.6927 20.125 61.2969 20.2812C60.9062 20.4375 60.5339 20.6094 60.1797 20.7969ZM78.4609 20.2578C78.7109 20.2578 78.8359 20.3984 78.8359 20.6797C78.8359 20.8672 78.7708 21.1042 78.6406 21.3906C78.5156 21.6719 78.3333 21.9375 78.0938 22.1875C77.8542 22.4323 77.5781 22.6875 77.2656 22.9531C76.9583 23.2188 76.5964 23.4974 76.1797 23.7891C75.7682 24.0807 75.3125 24.3698 74.8125 24.6562C74.3125 24.9427 73.7812 25.2005 73.2188 25.4297C71.974 25.9401 70.7682 26.1953 69.6016 26.1953C68.7109 26.1953 67.9323 25.9635 67.2656 25.5C66.5677 25.0156 66.2188 24.4271 66.2188 23.7344C66.2188 22.6458 66.8047 21.612 67.9766 20.6328C68.987 19.7891 70.1771 19.1354 71.5469 18.6719C72.3802 18.3906 73.0859 18.25 73.6641 18.25C74.1328 18.25 74.5286 18.3646 74.8516 18.5938C75.1953 18.8438 75.3672 19.1797 75.3672 19.6016C75.3672 20.263 74.8438 20.9948 73.7969 21.7969C73.6302 21.9271 73.4792 22.0365 73.3438 22.125L73.0625 22.3125C72.5417 22.6771 71.75 23.0859 70.6875 23.5391C71.0156 23.7109 71.3203 23.7969 71.6016 23.7969C71.888 23.7969 72.1432 23.763 72.3672 23.6953C72.5964 23.6276 72.8542 23.5312 73.1406 23.4062C73.4271 23.2812 73.7318 23.1328 74.0547 22.9609C74.3828 22.7839 74.7135 22.5911 75.0469 22.3828C75.7917 21.9193 76.4375 21.4453 76.9844 20.9609C77.2708 20.6953 77.6354 20.4844 78.0781 20.3281C78.224 20.2812 78.3516 20.2578 78.4609 20.2578ZM69.8438 22.4531L70.2734 22.2344C70.4141 22.1615 70.5391 22.0938 70.6484 22.0312C71.7005 21.4271 72.2995 21.0547 72.4453 20.9141C72.5911 20.7734 72.6641 20.6771 72.6641 20.625C72.6641 20.5677 72.6484 20.5026 72.6172 20.4297C72.5859 20.3568 72.5443 20.2917 72.4922 20.2344C72.3672 20.0885 72.2344 20.0156 72.0938 20.0156C71.9531 20.0156 71.7969 20.0417 71.625 20.0938C71.4583 20.1458 71.2891 20.2188 71.1172 20.3125C70.9453 20.401 70.7786 20.5104 70.6172 20.6406C70.4609 20.7656 70.3229 20.901 70.2031 21.0469C69.9271 21.375 69.7891 21.6589 69.7891 21.8984C69.7891 22.138 69.8073 22.3229 69.8438 22.4531ZM85.5859 20.6484C86.0964 20.6484 86.3516 20.8255 86.3516 21.1797C86.3516 21.5182 86.112 21.9557 85.6328 22.4922L85.25 22.8906C84.7865 23.3646 84.2448 23.8307 83.625 24.2891C83.0104 24.7474 82.4688 25.1094 82 25.375C80.9115 25.9792 79.9245 26.2812 79.0391 26.2812C78.2057 26.2812 77.526 26.0312 77 25.5312C76.5469 25.099 76.3203 24.6432 76.3203 24.1641C76.3203 23.6849 76.3672 23.2083 76.4609 22.7344C76.5547 22.2604 76.6771 21.7969 76.8281 21.3438C77.1302 20.4219 77.4609 19.638 77.8203 18.9922C77.9141 18.8151 77.9609 18.7005 77.9609 18.6484H76.9531C76.5729 18.6484 76.2786 18.5599 76.0703 18.3828C75.862 18.2057 75.7578 18.0052 75.7578 17.7812C75.7578 17.5573 75.7995 17.3932 75.8828 17.2891C75.9661 17.1849 76.0703 17.1094 76.1953 17.0625C76.3724 16.9896 76.6328 16.9531 76.9766 16.9531L78.8906 16.9609C78.9323 16.9453 79.0156 16.8333 79.1406 16.625L79.6172 15.8047C79.8203 15.4401 80.0234 15.1719 80.2266 15C80.4349 14.8281 80.6771 14.7422 80.9531 14.7422C81.2344 14.7422 81.4688 14.7682 81.6562 14.8203C81.849 14.8724 82.0104 14.9375 82.1406 15.0156C82.3958 15.1823 82.5234 15.3646 82.5234 15.5625C82.5234 15.6458 82.4948 15.7578 82.4375 15.8984L82 16.9609L85.7109 16.9531C86.0339 16.9531 86.1953 17.1198 86.1953 17.4531C86.1953 18.2448 85.4896 18.6406 84.0781 18.6406L81.2188 18.6484C81.1562 18.6797 81.0495 18.8307 80.8984 19.1016L80.5469 19.75C80.4583 19.9115 80.3958 20.0339 80.3594 20.1172L80.1875 20.5C79.8385 21.2865 79.6641 21.8542 79.6641 22.2031C79.6641 22.5521 79.7552 22.8438 79.9375 23.0781C80.125 23.3125 80.3724 23.4297 80.6797 23.4297C80.987 23.4297 81.2865 23.3698 81.5781 23.25C81.875 23.1302 82.1641 22.9844 82.4453 22.8125C82.9557 22.4948 83.3568 22.2005 83.6484 21.9297C83.9401 21.6589 84.1823 21.4531 84.375 21.3125C84.375 21.3125 84.5573 21.1849 84.9219 20.9297C85.2031 20.7422 85.4245 20.6484 85.5859 20.6484ZM98.4922 20.1328C98.6589 20.1328 98.7422 20.2734 98.7422 20.5547C98.7422 21.0391 98.4036 21.6667 97.7266 22.4375L97.2812 22.8906C95.9323 24.2396 94.6615 25.138 93.4688 25.5859C92.7292 25.862 92.1979 25.849 91.875 25.5469C91.6094 25.2917 91.3984 24.8802 91.2422 24.3125L91.0547 23.6328L89.3906 24.6562L88.4297 25.2031C87.2839 25.8281 86.4245 26.1406 85.8516 26.1406C85.1172 26.1406 84.5052 25.8568 84.0156 25.2891C83.5469 24.7526 83.3125 24.1302 83.3125 23.4219C83.3125 22.724 83.5911 22.1016 84.1484 21.5547C84.9453 20.7734 86.2031 20.0573 87.9219 19.4062C89.5469 18.7969 90.8594 18.4922 91.8594 18.4922C92.1979 18.4922 92.3672 18.6589 92.3672 18.9922C92.3672 19.2214 92.3229 19.3932 92.2344 19.5078C92.1458 19.6224 91.9635 19.7396 91.6875 19.8594L90.7031 20.2812C89.2448 20.8906 88.1771 21.5234 87.5 22.1797C87.3073 22.362 87.2109 22.5391 87.2109 22.7109C87.2109 22.8828 87.349 22.9688 87.625 22.9688C87.8958 22.9688 88.526 22.6771 89.5156 22.0938L90.1641 21.7109C91.1693 21.1068 92.0104 20.8047 92.6875 20.8047C93.2604 20.8047 93.6406 21.0573 93.8281 21.5625C93.875 21.6979 93.9193 21.8359 93.9609 21.9766C94.0026 22.112 94.0443 22.2344 94.0859 22.3438C94.1797 22.599 94.263 22.7266 94.3359 22.7266C94.4141 22.7266 94.5234 22.6901 94.6641 22.6172C94.8047 22.5391 94.9583 22.4427 95.125 22.3281C95.2969 22.2083 95.474 22.0781 95.6562 21.9375L96.6016 21.1797C97.4401 20.4818 98.0703 20.1328 98.4922 20.1328Z" fill="#1B1B1B"/>
</svg>
