<svg width="1360" height="357" viewBox="0 0 1360 357" fill="none" xmlns="http://www.w3.org/2000/svg">
<g clip-path="url(#clip0_32_5455)">
<path d="M276.22 -43L-685 357" stroke="url(#paint0_linear_32_5455)"/>
<path d="M343.434 -43L-374.343 357" stroke="url(#paint1_linear_32_5455)"/>
<path d="M410.646 -43L-119.836 357" stroke="url(#paint2_linear_32_5455)"/>
<path d="M477.859 -43L101.754 357" stroke="url(#paint3_linear_32_5455)"/>
<path d="M545.073 -43L303.605 357" stroke="url(#paint4_linear_32_5455)"/>
<path d="M612.287 -43L494.144 357" stroke="url(#paint5_linear_32_5455)"/>
<path d="M679.5 -43V357" stroke="url(#paint6_linear_32_5455)"/>
<path d="M746.713 -43L864.856 357" stroke="url(#paint7_linear_32_5455)"/>
<path d="M813.927 -43L1055.39 357" stroke="url(#paint8_linear_32_5455)"/>
<path d="M881.14 -43L1257.24 357" stroke="url(#paint9_linear_32_5455)"/>
<path d="M948.354 -43L1478.84 357" stroke="url(#paint10_linear_32_5455)"/>
<path d="M1015.57 -43L1733.34 357" stroke="url(#paint11_linear_32_5455)"/>
<path d="M1082.78 -43L2044 357" stroke="url(#paint12_linear_32_5455)"/>
<path d="M172.36 0.220215H1186.64" stroke="url(#paint13_linear_32_5455)"/>
<path d="M158.976 5.78979H1200.02" stroke="url(#paint14_linear_32_5455)"/>
<path d="M144.184 11.9453H1214.82" stroke="url(#paint15_linear_32_5455)"/>
<path d="M127.868 18.7347H1231.13" stroke="url(#paint16_linear_32_5455)"/>
<path d="M109.906 26.2094H1249.09" stroke="url(#paint17_linear_32_5455)"/>
<path d="M90.168 34.4233H1268.83" stroke="url(#paint18_linear_32_5455)"/>
<path d="M68.5146 43.4343H1290.49" stroke="url(#paint19_linear_32_5455)"/>
<path d="M44.7998 53.3026H1314.2" stroke="url(#paint20_linear_32_5455)"/>
<path d="M18.8711 64.0925H1340.13" stroke="url(#paint21_linear_32_5455)"/>
<path d="M-9.43457 75.8716H1368.43" stroke="url(#paint22_linear_32_5455)"/>
<path d="M-40.2881 88.7109H1399.29" stroke="url(#paint23_linear_32_5455)"/>
<path d="M-73.8701 102.686H1432.87" stroke="url(#paint24_linear_32_5455)"/>
<path d="M-110.371 117.875H1469.37" stroke="url(#paint25_linear_32_5455)"/>
<path d="M-149.989 134.362H1508.99" stroke="url(#paint26_linear_32_5455)"/>
<path d="M-192.935 152.233H1551.93" stroke="url(#paint27_linear_32_5455)"/>
<path d="M-239.427 171.58H1598.43" stroke="url(#paint28_linear_32_5455)"/>
<path d="M-289.697 192.5H1648.7" stroke="url(#paint29_linear_32_5455)"/>
<path d="M-343.986 215.091H1702.99" stroke="url(#paint30_linear_32_5455)"/>
<path d="M-402.548 239.461H1761.55" stroke="url(#paint31_linear_32_5455)"/>
<path d="M-465.647 265.719H1824.65" stroke="url(#paint32_linear_32_5455)"/>
<path d="M-533.561 293.98H1892.56" stroke="url(#paint33_linear_32_5455)"/>
<path d="M-606.577 324.365H1965.58" stroke="url(#paint34_linear_32_5455)"/>
<path d="M-685 357H2044" stroke="url(#paint35_linear_32_5455)"/>
<rect y="-20" width="1360" height="381" fill="url(#paint36_linear_32_5455)"/>
</g>
<defs>
<linearGradient id="paint0_linear_32_5455" x1="-204.39" y1="157" x2="-204.083" y2="157.739" gradientUnits="userSpaceOnUse">
<stop stop-color="#444444"/>
<stop offset="1" stop-color="#1A1A1A"/>
</linearGradient>
<linearGradient id="paint1_linear_32_5455" x1="-15.4549" y1="157" x2="-15.0664" y2="157.697" gradientUnits="userSpaceOnUse">
<stop stop-color="#444444"/>
<stop offset="1" stop-color="#1A1A1A"/>
</linearGradient>
<linearGradient id="paint2_linear_32_5455" x1="145.405" y1="157" x2="145.899" y2="157.655" gradientUnits="userSpaceOnUse">
<stop stop-color="#444444"/>
<stop offset="1" stop-color="#1A1A1A"/>
</linearGradient>
<linearGradient id="paint3_linear_32_5455" x1="289.807" y1="157" x2="290.436" y2="157.592" gradientUnits="userSpaceOnUse">
<stop stop-color="#444444"/>
<stop offset="1" stop-color="#1A1A1A"/>
</linearGradient>
<linearGradient id="paint4_linear_32_5455" x1="424.339" y1="157" x2="425.129" y2="157.477" gradientUnits="userSpaceOnUse">
<stop stop-color="#444444"/>
<stop offset="1" stop-color="#1A1A1A"/>
</linearGradient>
<linearGradient id="paint5_linear_32_5455" x1="553.215" y1="157" x2="554.152" y2="157.277" gradientUnits="userSpaceOnUse">
<stop stop-color="#444444"/>
<stop offset="1" stop-color="#1A1A1A"/>
</linearGradient>
<linearGradient id="paint6_linear_32_5455" x1="679.5" y1="157" x2="680.5" y2="157" gradientUnits="userSpaceOnUse">
<stop stop-color="#444444"/>
<stop offset="1" stop-color="#1A1A1A"/>
</linearGradient>
<linearGradient id="paint7_linear_32_5455" x1="805.785" y1="157" x2="806.722" y2="156.723" gradientUnits="userSpaceOnUse">
<stop stop-color="#444444"/>
<stop offset="1" stop-color="#1A1A1A"/>
</linearGradient>
<linearGradient id="paint8_linear_32_5455" x1="934.661" y1="157" x2="935.451" y2="156.523" gradientUnits="userSpaceOnUse">
<stop stop-color="#444444"/>
<stop offset="1" stop-color="#1A1A1A"/>
</linearGradient>
<linearGradient id="paint9_linear_32_5455" x1="1069.19" y1="157" x2="1069.82" y2="156.408" gradientUnits="userSpaceOnUse">
<stop stop-color="#444444"/>
<stop offset="1" stop-color="#1A1A1A"/>
</linearGradient>
<linearGradient id="paint10_linear_32_5455" x1="1213.59" y1="157" x2="1214.09" y2="156.345" gradientUnits="userSpaceOnUse">
<stop stop-color="#444444"/>
<stop offset="1" stop-color="#1A1A1A"/>
</linearGradient>
<linearGradient id="paint11_linear_32_5455" x1="1374.45" y1="157" x2="1374.84" y2="156.303" gradientUnits="userSpaceOnUse">
<stop stop-color="#444444"/>
<stop offset="1" stop-color="#1A1A1A"/>
</linearGradient>
<linearGradient id="paint12_linear_32_5455" x1="1563.39" y1="157" x2="1563.7" y2="156.261" gradientUnits="userSpaceOnUse">
<stop stop-color="#444444"/>
<stop offset="1" stop-color="#1A1A1A"/>
</linearGradient>
<linearGradient id="paint13_linear_32_5455" x1="172.36" y1="0.720215" x2="1186.64" y2="0.720215" gradientUnits="userSpaceOnUse">
<stop stop-color="#444444"/>
<stop offset="1" stop-color="#1A1A1A"/>
</linearGradient>
<linearGradient id="paint14_linear_32_5455" x1="158.976" y1="6.28979" x2="1200.02" y2="6.28979" gradientUnits="userSpaceOnUse">
<stop stop-color="#444444"/>
<stop offset="1" stop-color="#1A1A1A"/>
</linearGradient>
<linearGradient id="paint15_linear_32_5455" x1="144.184" y1="12.4453" x2="1214.82" y2="12.4453" gradientUnits="userSpaceOnUse">
<stop stop-color="#444444"/>
<stop offset="1" stop-color="#1A1A1A"/>
</linearGradient>
<linearGradient id="paint16_linear_32_5455" x1="127.868" y1="19.2347" x2="1231.13" y2="19.2347" gradientUnits="userSpaceOnUse">
<stop stop-color="#444444"/>
<stop offset="1" stop-color="#1A1A1A"/>
</linearGradient>
<linearGradient id="paint17_linear_32_5455" x1="109.906" y1="26.7094" x2="1249.09" y2="26.7094" gradientUnits="userSpaceOnUse">
<stop stop-color="#444444"/>
<stop offset="1" stop-color="#1A1A1A"/>
</linearGradient>
<linearGradient id="paint18_linear_32_5455" x1="90.168" y1="34.9233" x2="1268.83" y2="34.9233" gradientUnits="userSpaceOnUse">
<stop stop-color="#444444"/>
<stop offset="1" stop-color="#1A1A1A"/>
</linearGradient>
<linearGradient id="paint19_linear_32_5455" x1="68.5146" y1="43.9343" x2="1290.49" y2="43.9343" gradientUnits="userSpaceOnUse">
<stop stop-color="#444444"/>
<stop offset="1" stop-color="#1A1A1A"/>
</linearGradient>
<linearGradient id="paint20_linear_32_5455" x1="44.7998" y1="53.8026" x2="1314.2" y2="53.8026" gradientUnits="userSpaceOnUse">
<stop stop-color="#444444"/>
<stop offset="1" stop-color="#1A1A1A"/>
</linearGradient>
<linearGradient id="paint21_linear_32_5455" x1="18.8711" y1="64.5925" x2="1340.13" y2="64.5925" gradientUnits="userSpaceOnUse">
<stop stop-color="#444444"/>
<stop offset="1" stop-color="#1A1A1A"/>
</linearGradient>
<linearGradient id="paint22_linear_32_5455" x1="-9.43457" y1="76.3716" x2="1368.43" y2="76.3716" gradientUnits="userSpaceOnUse">
<stop stop-color="#444444"/>
<stop offset="1" stop-color="#1A1A1A"/>
</linearGradient>
<linearGradient id="paint23_linear_32_5455" x1="-40.2881" y1="89.2109" x2="1399.29" y2="89.2109" gradientUnits="userSpaceOnUse">
<stop stop-color="#444444"/>
<stop offset="1" stop-color="#1A1A1A"/>
</linearGradient>
<linearGradient id="paint24_linear_32_5455" x1="-73.8701" y1="103.186" x2="1432.87" y2="103.186" gradientUnits="userSpaceOnUse">
<stop stop-color="#444444"/>
<stop offset="1" stop-color="#1A1A1A"/>
</linearGradient>
<linearGradient id="paint25_linear_32_5455" x1="-110.371" y1="118.375" x2="1469.37" y2="118.375" gradientUnits="userSpaceOnUse">
<stop stop-color="#444444"/>
<stop offset="1" stop-color="#1A1A1A"/>
</linearGradient>
<linearGradient id="paint26_linear_32_5455" x1="-149.989" y1="134.862" x2="1508.99" y2="134.862" gradientUnits="userSpaceOnUse">
<stop stop-color="#444444"/>
<stop offset="1" stop-color="#1A1A1A"/>
</linearGradient>
<linearGradient id="paint27_linear_32_5455" x1="-192.935" y1="152.733" x2="1551.93" y2="152.733" gradientUnits="userSpaceOnUse">
<stop stop-color="#444444"/>
<stop offset="1" stop-color="#1A1A1A"/>
</linearGradient>
<linearGradient id="paint28_linear_32_5455" x1="-239.427" y1="172.08" x2="1598.43" y2="172.08" gradientUnits="userSpaceOnUse">
<stop stop-color="#444444"/>
<stop offset="1" stop-color="#1A1A1A"/>
</linearGradient>
<linearGradient id="paint29_linear_32_5455" x1="-289.697" y1="193" x2="1648.7" y2="193" gradientUnits="userSpaceOnUse">
<stop stop-color="#444444"/>
<stop offset="1" stop-color="#1A1A1A"/>
</linearGradient>
<linearGradient id="paint30_linear_32_5455" x1="-343.986" y1="215.591" x2="1702.99" y2="215.591" gradientUnits="userSpaceOnUse">
<stop stop-color="#444444"/>
<stop offset="1" stop-color="#1A1A1A"/>
</linearGradient>
<linearGradient id="paint31_linear_32_5455" x1="-402.548" y1="239.961" x2="1761.55" y2="239.961" gradientUnits="userSpaceOnUse">
<stop stop-color="#444444"/>
<stop offset="1" stop-color="#1A1A1A"/>
</linearGradient>
<linearGradient id="paint32_linear_32_5455" x1="-465.647" y1="266.219" x2="1824.65" y2="266.219" gradientUnits="userSpaceOnUse">
<stop stop-color="#444444"/>
<stop offset="1" stop-color="#1A1A1A"/>
</linearGradient>
<linearGradient id="paint33_linear_32_5455" x1="-533.561" y1="294.48" x2="1892.56" y2="294.48" gradientUnits="userSpaceOnUse">
<stop stop-color="#444444"/>
<stop offset="1" stop-color="#1A1A1A"/>
</linearGradient>
<linearGradient id="paint34_linear_32_5455" x1="-606.577" y1="324.865" x2="1965.58" y2="324.865" gradientUnits="userSpaceOnUse">
<stop stop-color="#444444"/>
<stop offset="1" stop-color="#1A1A1A"/>
</linearGradient>
<linearGradient id="paint35_linear_32_5455" x1="-685" y1="357.5" x2="2044" y2="357.5" gradientUnits="userSpaceOnUse">
<stop stop-color="#444444"/>
<stop offset="1" stop-color="#1A1A1A"/>
</linearGradient>
<linearGradient id="paint36_linear_32_5455" x1="680" y1="-20" x2="680" y2="351" gradientUnits="userSpaceOnUse">
<stop stop-color="#1A1A1A"/>
<stop offset="1" stop-color="#1A1A1A" stop-opacity="0"/>
</linearGradient>
<clipPath id="clip0_32_5455">
<rect width="2729" height="357" fill="white" transform="translate(-685)"/>
</clipPath>
</defs>
</svg>
