<svg width="27" height="27" viewBox="0 0 27 27" fill="none" xmlns="http://www.w3.org/2000/svg">
<g clip-path="url(#clip0_32_5940)">
<path d="M13.5 3.375C12.1704 3.375 10.8538 3.63689 9.62533 4.14572C8.39691 4.65455 7.28074 5.40035 6.34054 6.34054C5.40035 7.28074 4.65455 8.39691 4.14572 9.62533C3.63689 10.8538 3.375 12.1704 3.375 13.5C3.375 14.8296 3.63689 16.1462 4.14572 17.3747C4.65455 18.6031 5.40035 19.7193 6.34054 20.6595C7.28074 21.5996 8.39691 22.3455 9.62533 22.8543C10.8538 23.3631 12.1704 23.625 13.5 23.625C16.1853 23.625 18.7607 22.5583 20.6595 20.6595C22.5583 18.7607 23.625 16.1853 23.625 13.5C23.625 10.8147 22.5583 8.23935 20.6595 6.34054C18.7607 4.44174 16.1853 3.375 13.5 3.375ZM0 13.5C0 9.91958 1.42232 6.4858 3.95406 3.95406C6.4858 1.42232 9.91958 0 13.5 0C17.0804 0 20.5142 1.42232 23.0459 3.95406C25.5777 6.4858 27 9.91958 27 13.5C27 17.0804 25.5777 20.5142 23.0459 23.0459C20.5142 25.5777 17.0804 27 13.5 27C9.91958 27 6.4858 25.5777 3.95406 23.0459C1.42232 20.5142 0 17.0804 0 13.5Z" fill="#F26565"/>
<path d="M18.5623 10.125C18.5623 10.5726 18.3845 11.0018 18.068 11.3182C17.7515 11.6347 17.3223 11.8125 16.8748 11.8125C16.4272 11.8125 15.998 11.6347 15.6815 11.3182C15.3651 11.0018 15.1873 10.5726 15.1873 10.125C15.1873 9.67745 15.3651 9.24823 15.6815 8.93176C15.998 8.61529 16.4272 8.4375 16.8748 8.4375C17.3223 8.4375 17.7515 8.61529 18.068 8.93176C18.3845 9.24823 18.5623 9.67745 18.5623 10.125ZM11.8123 10.125C11.8123 10.5726 11.6345 11.0018 11.318 11.3182C11.0015 11.6347 10.5723 11.8125 10.1248 11.8125C9.67721 11.8125 9.24799 11.6347 8.93152 11.3182C8.61505 11.0018 8.43726 10.5726 8.43726 10.125C8.43726 9.67745 8.61505 9.24823 8.93152 8.93176C9.24799 8.61529 9.67721 8.4375 10.1248 8.4375C10.5723 8.4375 11.0015 8.61529 11.318 8.93176C11.6345 9.24823 11.8123 9.67745 11.8123 10.125ZM16.4394 18.819C16.7319 19.149 17.1419 19.3513 17.5817 19.3828C18.0214 19.4143 18.4561 19.2724 18.7926 18.9875C19.1291 18.7026 19.3408 18.2973 19.3822 17.8584C19.4237 17.4194 19.2917 16.9816 19.0145 16.6387L19.0128 16.6354L19.0111 16.6337L19.0061 16.6269L18.9943 16.6134L18.9639 16.5797C18.8441 16.4471 18.7173 16.3209 18.5842 16.2017C18.2595 15.9107 17.9075 15.6519 17.5329 15.4288C16.3129 14.7055 14.918 14.3302 13.4998 14.3437C12.0815 14.3302 10.6866 14.7055 9.46664 15.4288C8.97673 15.7217 8.52594 16.0755 8.12508 16.4818L8.03564 16.578L8.00526 16.6134L7.99345 16.6269L7.98839 16.6337L7.98501 16.6371C7.69567 16.9785 7.55383 17.421 7.5907 17.867C7.62757 18.3131 7.84012 18.7263 8.18161 19.0156C8.52309 19.3049 8.96553 19.4468 9.41159 19.4099C9.85765 19.373 10.2708 19.1605 10.5601 18.819L10.5686 18.8106C10.5843 18.7926 10.6192 18.7588 10.6732 18.7093C10.8368 18.563 11.0143 18.433 11.2031 18.3212C11.8987 17.9131 12.6934 17.7047 13.4998 17.7187C14.5528 17.7187 15.3105 18.0309 15.7948 18.3212C16.0289 18.4605 16.2454 18.6276 16.4394 18.819Z" fill="#F26565"/>
</g>
<defs>
<clipPath id="clip0_32_5940">
<rect width="27" height="27" fill="white"/>
</clipPath>
</defs>
</svg>
