<svg width="27" height="27" viewBox="0 0 27 27" fill="none" xmlns="http://www.w3.org/2000/svg">
<g clip-path="url(#clip0_32_6005)">
<path fill-rule="evenodd" clip-rule="evenodd" d="M24.4688 13.5C24.4687 16.4091 23.3131 19.199 21.2561 21.2561C19.199 23.3131 16.4091 24.4688 13.5 24.4688C10.5909 24.4688 7.80096 23.3131 5.74392 21.2561C3.68688 19.199 2.53125 16.4091 2.53125 13.5C2.53125 10.5909 3.68688 7.80096 5.74392 5.74392C7.80096 3.68688 10.5909 2.53125 13.5 2.53125C16.4091 2.53125 19.199 3.68688 21.2561 5.74392C23.3131 7.80096 24.4687 10.5909 24.4688 13.5ZM27 13.5C27 17.0804 25.5777 20.5142 23.0459 23.0459C20.5142 25.5777 17.0804 27 13.5 27C9.91958 27 6.4858 25.5777 3.95406 23.0459C1.42232 20.5142 0 17.0804 0 13.5C0 9.91958 1.42232 6.4858 3.95406 3.95406C6.4858 1.42232 9.91958 0 13.5 0C17.0804 0 20.5142 1.42232 23.0459 3.95406C25.5777 6.4858 27 9.91958 27 13.5ZM8.86275 7.93125C9.44402 7.59681 10.1343 7.50671 10.7819 7.68072C11.4296 7.85473 11.9817 8.27864 12.3171 8.85938C12.4272 9.05306 12.4562 9.28245 12.3979 9.49747C12.3395 9.7125 12.1984 9.8957 12.0055 10.0071C11.8125 10.1185 11.5833 10.1491 11.3679 10.0921C11.1525 10.0352 10.9684 9.89534 10.8557 9.70312C10.7817 9.57518 10.6753 9.46892 10.5473 9.395C10.4193 9.32107 10.2741 9.28207 10.1263 9.2819C9.97851 9.28173 9.83325 9.32039 9.70507 9.39402C9.5769 9.46765 9.47032 9.57366 9.396 9.70144C9.28366 9.895 9.09904 10.036 8.88273 10.0935C8.66642 10.1509 8.43616 10.1201 8.24259 10.0077C8.04903 9.89538 7.90801 9.71075 7.85057 9.49445C7.79314 9.27814 7.82398 9.04788 7.93631 8.85431C8.1594 8.47057 8.47779 8.15224 8.86275 7.93125ZM13.5 20.25C15.2902 20.25 17.0071 19.5388 18.273 18.273C19.5388 17.0071 20.25 15.2902 20.25 13.5H6.75C6.75 15.2902 7.46116 17.0071 8.72703 18.273C9.9929 19.5388 11.7098 20.25 13.5 20.25ZM15.6128 7.93125C16.194 7.59681 16.8843 7.50671 17.5319 7.68072C18.1796 7.85473 18.7317 8.27864 19.0671 8.85938C19.1233 8.95537 19.1601 9.06155 19.1751 9.17179C19.1902 9.28204 19.1833 9.39418 19.1549 9.50176C19.1265 9.60934 19.077 9.71023 19.0094 9.79862C18.9418 9.88701 18.8574 9.96116 18.7611 10.0168C18.6647 10.0724 18.5583 10.1085 18.4479 10.1228C18.3376 10.1372 18.2255 10.1295 18.1181 10.1004C18.0107 10.0712 17.9102 10.0211 17.8222 9.95293C17.7343 9.88475 17.6607 9.79986 17.6057 9.70312C17.5317 9.57518 17.4253 9.46892 17.2973 9.395C17.1693 9.32107 17.0241 9.28207 16.8763 9.2819C16.7285 9.28173 16.5832 9.32039 16.4551 9.39402C16.3269 9.46765 16.2203 9.57366 16.146 9.70144C16.0337 9.895 15.849 10.036 15.6327 10.0935C15.4164 10.1509 15.1862 10.1201 14.9926 10.0077C14.799 9.89538 14.658 9.71075 14.6006 9.49445C14.5431 9.27814 14.574 9.04788 14.6863 8.85431C14.9094 8.47057 15.2295 8.15224 15.6144 7.93125H15.6128Z" fill="#B4DE00"/>
</g>
<defs>
<clipPath id="clip0_32_6005">
<rect width="27" height="27" fill="white"/>
</clipPath>
</defs>
</svg>
